<?xml version="1.0" standalone="no"?>
<!DOCTYPE svg PUBLIC "-//W3C//DTD SVG 20010904//EN"
 "http://www.w3.org/TR/2001/REC-SVG-20010904/DTD/svg10.dtd">
<svg version="1.0" xmlns="http://www.w3.org/2000/svg"
 width="24.000000pt" height="24.000000pt" viewBox="0 0 24.000000 24.000000"
 preserveAspectRatio="xMidYMid meet">

<g transform="translate(0.000000,24.000000) scale(0.100000,-0.100000)"
fill="#000000" stroke="none">
<path d="M70 196 c0 -25 -5 -35 -20 -39 -42 -11 -7 -97 39 -97 12 0 21 -6 21
-15 0 -9 -9 -15 -25 -15 -14 0 -25 -4 -25 -10 0 -6 27 -10 60 -10 33 0 60 4
60 10 0 6 -11 10 -25 10 -16 0 -25 6 -25 15 0 9 9 15 21 15 46 0 81 86 39 97
-15 4 -20 14 -20 39 l0 34 -50 0 -50 0 0 -34z m80 -8 c0 -42 -12 -68 -30 -68
-18 0 -30 26 -30 68 0 18 6 22 30 22 24 0 30 -4 30 -22z m-72 -65 c-4 -22 -22
-20 -26 1 -2 10 3 16 13 16 10 0 15 -7 13 -17z m110 0 c-4 -22 -22 -20 -26 1
-2 10 3 16 13 16 10 0 15 -7 13 -17z m-33 -33 c4 -6 -10 -10 -35 -10 -25 0
-39 4 -35 10 3 6 19 10 35 10 16 0 32 -4 35 -10z"/>
</g>
</svg>
